# xmcd CD database file
#
# Track frame offsets:
#	150
#	14522
#	34226
#	48507
#	64626
#	84833
#	105114
#	121699
#	138727
#	156076
#
# Disc length: 2356 seconds
#
# Revision: 0
# Processed by: cddbd v1.5.2PL0 Copyright (c) Steve Scherf et al.
# Submitted via: CDex 1.70beta2
#
DISCID=7509320a
DTITLE=Macy Gray - Talking Book
DYEAR=2012
DGENRE=Jazz
TTITLE0=You Are The Sunshine Of My Life
TTITLE1=Maybe Your Baby
TTITLE2=You And I (We Can Conquer The World)
TTITLE3=Tuesday Heartbreak
TTITLE4=You've Got It Bad Girl
TTITLE5=Superstition
TTITLE6=Big Brother
TTITLE7=Blame It On The Sun
TTITLE8=Lookin' For Another Pure Love
TTITLE9=I Believe (When I Fall In Love It Will Be Forever) 
EXTD=YEAR: 2012
EXTT0=
EXTT1=
EXTT2=
EXTT3=
EXTT4=
EXTT5=
EXTT6=
EXTT7=
EXTT8=
EXTT9=
PLAYORDER=
